<svg width="17" height="20" viewBox="0 0 17 20" fill="none" xmlns="http://www.w3.org/2000/svg">
<path d="M7.92989 0.707161C7.20391 0.864759 6.50665 1.39816 6.17032 2.06088C5.76016 2.86503 5.78477 3.77424 6.23594 4.5299L6.3959 4.80064L5.98165 4.93399C5.42794 5.1118 4.46817 5.59671 3.99239 5.93211C2.86446 6.72413 2.07286 7.63335 1.46583 8.82947C1.01055 9.7306 0.76856 10.5388 0.666021 11.5167C0.300982 14.9758 2.40919 18.3136 5.73145 19.542C8.62715 20.6088 11.8797 19.9178 14.0617 17.764C15.9648 15.8809 16.7647 13.1977 16.1863 10.6317C16.0264 9.93669 15.8705 9.50027 15.5301 8.82947C14.9107 7.59698 14.033 6.61099 12.8887 5.85129C12.3678 5.50377 11.5844 5.11988 11.0143 4.93399L10.5918 4.7966L10.6779 4.67133C10.842 4.42888 11.0061 4.05307 11.0635 3.77424C11.4572 1.94369 9.792 0.31115 7.92989 0.707161ZM9.11934 2.10533C9.39415 2.2508 9.52129 2.38011 9.68126 2.68319C9.77149 2.85695 9.7879 2.94181 9.7879 3.23275C9.792 3.54795 9.77969 3.59644 9.65254 3.83082C9.49669 4.11368 9.36543 4.23491 9.05782 4.39655C8.88145 4.48545 8.79532 4.50161 8.50001 4.50161C8.20469 4.50161 8.11856 4.48545 7.94219 4.39655C7.63458 4.23491 7.50333 4.11368 7.34747 3.83082C7.22032 3.59644 7.20801 3.54795 7.21211 3.23275C7.21211 2.82866 7.31055 2.5862 7.57715 2.32354C7.98731 1.91945 8.59844 1.83459 9.11934 2.10533ZM8.86094 7.22117C8.91836 7.26158 9.0045 7.35048 9.04961 7.4111C9.13165 7.5202 9.13575 7.57273 9.14805 9.57704L9.16036 11.6339L11.2481 11.646C13.2824 11.6581 13.3357 11.6622 13.4465 11.743C13.6639 11.9006 13.7295 12.0299 13.7295 12.2845C13.7295 12.5391 13.6639 12.6684 13.4465 12.826C13.3357 12.9108 13.2947 12.9108 10.7969 12.9108C8.29903 12.9108 8.25801 12.9108 8.14727 12.826C8.08575 12.7815 7.99551 12.6926 7.9504 12.632C7.86426 12.5229 7.86426 12.4744 7.85196 10.1307C7.84376 8.8133 7.85196 7.68184 7.86426 7.6091C7.89297 7.44746 8.06524 7.24138 8.2334 7.16864C8.39747 7.09186 8.72559 7.12015 8.86094 7.22117Z" fill="#555555"/>
</svg>
