<svg width="21" height="20" viewBox="0 0 21 20" fill="none" xmlns="http://www.w3.org/2000/svg">
<path d="M3.43881 0.841459C3.38217 0.860338 3.29249 0.94058 3.23585 1.01138C3.14617 1.12938 3.13673 1.19074 3.13673 1.87515C3.14145 2.3802 3.15561 2.63508 3.19809 2.68228C3.32081 2.84276 3.49073 2.91828 3.71258 2.91828H3.93914V3.19205C3.93914 3.34781 3.9533 3.63101 3.96746 3.82925L4.0005 4.18798L2.87241 4.20214C1.7868 4.2163 1.73488 4.22102 1.51303 4.32958C1.20151 4.48534 0.937186 4.7591 0.781425 5.08479C0.668143 5.33023 0.658703 5.39159 0.663423 5.98632C0.682304 8.0065 1.51303 9.88036 3.03289 11.3294C4.12794 12.3678 5.46844 13.0428 6.95525 13.3024C7.2243 13.3496 7.29038 13.3874 7.60662 13.6611C8.06919 14.067 8.55063 14.3738 9.00376 14.5579C9.20672 14.6382 9.38136 14.7184 9.39552 14.7326C9.40968 14.7467 9.27752 15.4783 9.09816 16.361L8.78191 17.9705L7.98894 17.9847C7.28094 17.9989 7.19126 18.0083 7.07325 18.098C6.79477 18.3057 6.74757 18.4142 6.74757 18.8862V19.3205H10.5H14.2525V18.9193C14.2525 18.4756 14.1769 18.2821 13.9315 18.098C13.8088 18.0083 13.7238 17.9989 13.0064 17.9847L12.2181 17.9705L11.9207 16.4271C11.7555 15.5822 11.6092 14.8553 11.5998 14.8128C11.5856 14.7562 11.68 14.6995 11.9679 14.5815C12.4116 14.3974 13.0394 13.9915 13.45 13.6186C13.7238 13.3685 13.7568 13.3543 14.1581 13.2788C15.6307 13.0098 16.9995 12.2781 18.104 11.1784C19.5531 9.73404 20.3177 7.94986 20.3366 5.98632C20.3413 5.38687 20.3319 5.33495 20.2139 5.08007C20.0487 4.72606 19.723 4.41454 19.3926 4.29182C19.1613 4.20214 19.0291 4.1927 18.0993 4.1927C17.5329 4.1927 17.0562 4.17382 17.042 4.15494C17.0278 4.13134 17.0326 3.84813 17.0467 3.51773L17.075 2.91828H17.2827C17.5282 2.91828 17.7406 2.80972 17.8114 2.64924C17.8397 2.58316 17.8633 2.23859 17.8633 1.83267V1.12466L17.7264 0.973619L17.5895 0.817858L10.5614 0.808418C6.70037 0.803698 3.49073 0.817858 3.43881 0.841459ZM11.0192 4.71662C11.7367 4.8299 12.2984 5.11311 12.8459 5.62759C13.9315 6.64712 14.2336 8.2897 13.5822 9.59716C13.1668 10.4279 12.4966 11.0179 11.6187 11.3341C11.0711 11.5277 10.2782 11.5654 9.6976 11.4191C7.41782 10.8527 6.36997 8.28498 7.6019 6.2884C7.8379 5.90608 8.37599 5.37271 8.76303 5.14615C9.42856 4.75438 10.264 4.5939 11.0192 4.71662ZM4.08074 5.35855C4.08074 5.57567 4.3073 6.93977 4.43947 7.53449C4.77459 9.02603 5.35044 10.5553 5.98292 11.6173C6.10564 11.8203 6.20476 11.9949 6.20476 12.0091C6.20476 12.0516 5.5534 11.7778 5.17107 11.5749C4.01938 10.9707 2.91017 9.819 2.35792 8.65315C1.98032 7.85546 1.77264 7.02473 1.73488 6.16096C1.69239 5.24055 1.69711 5.23583 3.08009 5.23111H4.08074V5.35855ZM19.0339 5.29719C19.2604 5.41519 19.2982 5.54263 19.2651 6.16096C19.1896 7.74218 18.5807 9.15347 17.4715 10.3146C16.9618 10.8433 16.4095 11.2728 15.8384 11.5701C15.4041 11.8014 14.7764 12.0563 14.8047 11.9949C14.8094 11.9713 14.9416 11.7448 15.0879 11.4805C15.9375 9.99836 16.6314 7.77994 16.8721 5.79751C16.9004 5.55207 16.9334 5.32079 16.9429 5.28775C16.9759 5.19807 18.8592 5.20751 19.0339 5.29719Z" fill="#19376D"/>
</svg>
