<svg width="18" height="18" viewBox="0 0 18 18" fill="none" xmlns="http://www.w3.org/2000/svg">
<path d="M15.4863 3.11194L13.6582 4.94042L14.5898 5.87224C14.9203 6.20277 14.9203 6.73725 14.5898 7.06427L13.9781 7.67611C14.393 8.59387 14.625 9.6136 14.625 10.6861C14.625 14.7263 11.352 18 7.3125 18C3.27305 18 0 14.7298 0 10.6896C0 6.64935 3.27305 3.37566 7.3125 3.37566C8.38477 3.37566 9.4043 3.60774 10.3219 4.02266L10.9336 3.41082C11.2641 3.08029 11.7984 3.08029 12.1254 3.41082L13.057 4.34265L14.8852 2.51416L15.4863 3.11194ZM17.5781 2.10979H16.7344C16.5023 2.10979 16.3125 2.29967 16.3125 2.53174C16.3125 2.76382 16.5023 2.9537 16.7344 2.9537H17.5781C17.8102 2.9537 18 2.76382 18 2.53174C18 2.29967 17.8102 2.10979 17.5781 2.10979ZM15.4688 0C15.2367 0 15.0469 0.189881 15.0469 0.421957V1.26587C15.0469 1.49795 15.2367 1.68783 15.4688 1.68783C15.7008 1.68783 15.8906 1.49795 15.8906 1.26587V0.421957C15.8906 0.189881 15.7008 0 15.4688 0ZM16.6605 1.93397L17.2582 1.3362C17.4234 1.17093 17.4234 0.903692 17.2582 0.738425C17.093 0.573159 16.8258 0.573159 16.6605 0.738425L16.0629 1.3362C15.8977 1.50147 15.8977 1.7687 16.0629 1.93397C16.2316 2.09924 16.4988 2.09924 16.6605 1.93397ZM14.277 1.93397C14.4422 2.09924 14.7094 2.09924 14.8746 1.93397C15.0398 1.7687 15.0398 1.50147 14.8746 1.3362L14.277 0.738425C14.1117 0.573159 13.8445 0.573159 13.6793 0.738425C13.5141 0.903692 13.5141 1.17093 13.6793 1.3362L14.277 1.93397ZM16.6605 3.12952C16.4953 2.96425 16.2281 2.96425 16.0629 3.12952C15.8977 3.29478 15.8977 3.56202 16.0629 3.72729L16.6605 4.32506C16.8258 4.49033 17.093 4.49033 17.2582 4.32506C17.4234 4.1598 17.4234 3.89256 17.2582 3.72729L16.6605 3.12952ZM3.9375 9.56437C3.9375 8.32311 4.94648 7.31393 6.1875 7.31393C6.49687 7.31393 6.75 7.06075 6.75 6.75132C6.75 6.44188 6.49687 6.18871 6.1875 6.18871C4.32773 6.18871 2.8125 7.70424 2.8125 9.56437C2.8125 9.8738 3.06562 10.127 3.375 10.127C3.68438 10.127 3.9375 9.8738 3.9375 9.56437Z" fill="#555555"/>
</svg>
