<svg width="15" height="18" viewBox="0 0 15 18" fill="none" xmlns="http://www.w3.org/2000/svg">
<path d="M2.32812 0.742188C2.14844 0.820312 2.02734 0.9375 1.92578 1.12891L1.83984 1.28516L1.82812 8.48047L1.82031 15.6797H1.29687C0.828125 15.6797 0.761719 15.6875 0.605469 15.7695C0.511719 15.8203 0.382812 15.9375 0.316406 16.0273C0.210937 16.1797 0.199219 16.2227 0.199219 16.4961C0.199219 16.7539 0.214844 16.8203 0.296875 16.9414C0.351562 17.0234 0.464844 17.1367 0.546875 17.1953L0.699219 17.3008H2.66406H4.625L4.79687 17.1836C5.33594 16.8047 5.25781 15.9883 4.66406 15.7383C4.55859 15.6953 4.37891 15.6797 4.00781 15.6797H3.5V12.75V9.82031L8.64844 9.8125L13.8008 9.80078L13.957 9.69141C14.2812 9.46875 14.418 8.97266 14.25 8.64844C14.2109 8.57422 13.7031 7.875 13.1172 7.09375C12.4531 6.21484 12.0625 5.66016 12.082 5.62891C12.0977 5.60156 12.582 4.94922 13.1602 4.17578C13.7422 3.40625 14.2383 2.71484 14.2656 2.64453C14.3398 2.46875 14.332 2.17578 14.2461 1.98828C14.1562 1.78906 13.9375 1.59375 13.7461 1.54297C13.6445 1.51562 11.9531 1.5 8.55078 1.5H3.5V1.42188C3.5 1.19531 3.28125 0.886719 3.02344 0.753906C2.84766 0.664062 2.52344 0.65625 2.32812 0.742188Z" fill="#19376D"/>
</svg>
