<svg width="17" height="17" viewBox="0 0 17 17" fill="none" xmlns="http://www.w3.org/2000/svg">
<path d="M7.47207 0.243156C6.88945 0.399015 6.45156 0.803507 6.22891 1.38612C6.17324 1.52714 6.14727 1.71269 6.125 2.09863C6.09531 2.72206 6.02852 2.91503 5.7502 3.1748C5.30117 3.59413 4.81504 3.62753 4.21387 3.28241C3.84277 3.06718 3.58301 2.97441 3.27129 2.94843C2.79258 2.9039 2.23223 3.11542 1.87598 3.47167C1.68301 3.66464 0.981642 4.84101 0.866603 5.16757C0.833205 5.25663 0.799806 5.47929 0.788673 5.66855C0.770119 6.08788 0.85547 6.41445 1.07813 6.74843C1.25254 7.0082 1.38242 7.11952 1.82031 7.383C2.36582 7.71327 2.54024 7.98417 2.54024 8.49999C2.54395 8.78945 2.53281 8.83398 2.41777 9.04921C2.26934 9.32011 2.19141 9.39433 1.77949 9.63925C1.06328 10.0623 0.751564 10.593 0.788673 11.3314C0.799806 11.5207 0.833205 11.7434 0.866603 11.8324C0.981642 12.1516 1.68301 13.3279 1.87598 13.5246C2.23223 13.8846 2.78887 14.0961 3.26758 14.0516C3.58301 14.0256 3.79453 13.9514 4.1916 13.7287C4.68516 13.4541 5.01914 13.4133 5.40879 13.584C5.63887 13.6842 5.91719 13.9625 6.01738 14.1889C6.08418 14.3447 6.10645 14.482 6.125 14.9014C6.14727 15.2873 6.17324 15.4728 6.22891 15.6139C6.45527 16.2039 6.89316 16.6047 7.48691 16.7568C7.7875 16.8348 9.2125 16.8348 9.51309 16.7568C10.1068 16.601 10.5447 16.2039 10.7711 15.6139C10.8268 15.4728 10.8527 15.2799 10.8713 14.9014C10.9047 14.2742 10.9715 14.085 11.2498 13.8252C11.5578 13.5394 11.9178 13.4281 12.2889 13.506C12.3965 13.532 12.634 13.6322 12.8121 13.7287C13.3502 14.0293 13.6842 14.1072 14.1369 14.0293C14.4969 13.9699 14.8791 13.7732 15.1166 13.5283C15.3504 13.2908 16.0406 12.1107 16.1482 11.7693C16.241 11.4613 16.241 11.0309 16.1445 10.7228C16.0035 10.259 15.7289 9.93984 15.2168 9.63554C14.6379 9.29413 14.4598 9.02324 14.4598 8.49999C14.4598 7.97675 14.6379 7.70585 15.2168 7.36445C15.7289 7.06015 16.0035 6.74101 16.1445 6.27714C16.241 5.96913 16.241 5.53866 16.1482 5.23437C16.0406 4.89296 15.3504 3.70546 15.124 3.47538C14.7678 3.11542 14.2111 2.9039 13.7324 2.94843C13.417 2.97441 13.2055 3.04862 12.8084 3.27128C12.3148 3.54589 11.9809 3.58671 11.5912 3.41601C11.3611 3.31581 11.0828 3.03749 10.9826 2.81112C10.9158 2.65527 10.8936 2.51796 10.875 2.09863C10.8527 1.71269 10.8268 1.52714 10.7711 1.38612C10.5447 0.796085 10.1068 0.395304 9.51309 0.243156C9.22363 0.168938 7.7541 0.168938 7.47207 0.243156ZM9.20508 5.61659C9.98066 5.82812 10.567 6.25116 10.99 6.89687C11.3166 7.39413 11.4502 7.85429 11.4502 8.49999C11.4502 9.33867 11.1719 10.0141 10.593 10.593C9.44258 11.7434 7.57969 11.7508 6.42559 10.6115C5.82813 10.0215 5.54981 9.3498 5.54981 8.49999C5.54981 7.85429 5.6834 7.39784 6.01367 6.88945C6.45156 6.22148 7.13809 5.7539 7.94336 5.5832C8.24023 5.52011 8.91563 5.53866 9.20508 5.61659Z" fill="#19376D"/>
</svg>
